<svg viewBox="0 0 256 256" fill="none" xmlns="http://www.w3.org/2000/svg">
  <rect width="256" height="256" rx="32" fill="transparent"/>
  <circle cx="128" cy="128" r="96" fill="#FFFFFF"/>
  <path d="M124 72C94.6 72 72 94.6 72 124C72 153.4 94.6 176 124 176C153.4 176 176 153.4 176 124C176 94.6 153.4 72 124 72ZM124 160C99.5 160 80 140.5 80 116C80 91.5 99.5 72 124 72C148.5 72 168 91.5 168 116C168 140.5 148.5 160 124 160Z" fill="#1C2C68"/>
  <path d="M88 124H156" stroke="#1C2C68" stroke-width="18" stroke-linecap="round"/>
</svg>
