<svg viewBox="0 0 256 256" fill="none" xmlns="http://www.w3.org/2000/svg">
  <rect width="256" height="256" rx="32" fill="transparent"/>
  <circle cx="128" cy="128" r="96" fill="#F7931A"/>
  <path d="M123 84L141 84C151 84 159 91 159 101C159 109 153 116 144 118L156 150H138L129 120H117L111 150H93L100 118H83L84 100C84 84 98 72 112 72H120L123 84ZM129 104H137C143 104 147 100 147 95C147 90 143 86 137 86H129V104ZM123 132H135C145 132 152 126 152 116C152 105 145 100 135 100H123V132Z" fill="#FFFFFF"/>
</svg>
